<svg width="120" height="31" viewBox="0 0 120 31" fill="none" xmlns="http://www.w3.org/2000/svg">
<g clip-path="url(#clip0_4_1671)">
<path d="M31.0242 30.4696L30.9808 30.3842L46.5783 1.45316H39.7405C35.1252 1.45316 33.416 3.67556 32.3908 10.3849H31.9208V0.556456H52.2622V0.727147L36.7068 29.5729H42.9461C47.9028 29.5729 50.2958 26.8805 51.1083 19.3599H51.5783V30.4708H31.0242V30.4696ZM22.0505 7.56391L21.8366 26.8794C21.8366 28.5886 23.6311 30.7256 25.0842 30.7256C26.5373 30.7256 28.8018 27.9047 30.0409 26.4094L29.6131 25.8962C28.9725 26.4515 28.6299 26.6654 28.0746 26.6654C27.1768 26.6654 26.4076 25.6402 26.4076 24.0584L26.5783 2.77658L22.0482 7.56277L22.0505 7.56391ZM107.773 17.777L111.405 14.016L107.773 10.2984L104.098 14.016L107.773 17.777ZM107.345 29.2725H108.243V0.555317H107.345V29.2725ZM108.67 30.7677C112.815 30.7677 116.918 28.6739 119.481 25.2976V23.1606C116.747 25.7676 113.755 26.9636 110.038 26.9636C103.158 26.9636 99.0554 21.4082 99.0554 14.1435C99.0554 6.87887 103.286 1.92199 109.397 1.92199C113.414 1.92199 115.85 3.2898 118.841 7.34885V2.73335C115.849 1.15274 112.772 0.340248 109.653 0.340248C101.448 0.340248 95.3377 7.04956 95.3377 15.8095C95.3377 24.5693 100.893 30.7666 108.671 30.7666L108.67 30.7677ZM79.3546 4.27298H94.3969C95.4223 4.27298 96.2769 3.41839 96.2769 2.34986C96.2769 1.36667 95.4223 0.555317 94.3969 0.555317H79.3546C78.3292 0.555317 77.5169 1.36781 77.5169 2.34986C77.5169 3.41839 78.3292 4.27298 79.3546 4.27298ZM79.2692 8.50383C80.2092 8.50383 81.0215 7.77781 81.0215 6.83677C81.0215 5.89569 80.2092 5.21292 79.2692 5.21292C78.3292 5.21292 77.5169 5.89682 77.5169 6.83677C77.5169 7.77673 78.2862 8.50383 79.2692 8.50383ZM79.1839 17.2637H90.2946C91.1923 17.2637 91.9185 16.4513 91.9185 15.426C91.9185 14.4007 91.1923 13.5461 90.2946 13.5461H79.1839C78.2862 13.5461 77.5169 14.4007 77.5169 15.426C77.5169 16.4513 78.2862 17.2637 79.1839 17.2637ZM79.2277 12.7336C80.2108 12.7336 81.0215 11.9644 81.0215 11.0665C81.0215 10.0833 80.2092 9.44262 79.2277 9.44262C78.2454 9.44262 77.5185 10.0833 77.5185 11.0665C77.5185 11.9644 78.2877 12.7336 79.2277 12.7336ZM79.2277 21.5367C80.2108 21.5367 81.0215 20.8108 81.0215 19.8697C81.0215 18.9286 80.2092 18.1605 79.2277 18.1605C78.2454 18.1605 77.5185 18.8865 77.5185 19.8697C77.5185 20.8528 78.2877 21.5367 79.2277 21.5367ZM79.3562 30.4685H94.3977C95.4231 30.4685 96.2777 29.6138 96.2777 28.5886C96.2777 27.5633 95.4231 26.7508 94.3977 26.7508H79.3562C78.3308 26.7508 77.5185 27.5633 77.5185 28.5886C77.5185 29.6138 78.3308 30.4685 79.3562 30.4685ZM79.2277 25.8109C80.2108 25.8109 81.0215 25.0849 81.0215 24.1438C81.0215 23.2027 80.2092 22.4346 79.2277 22.4346C78.2454 22.4346 77.5185 23.1606 77.5185 24.1438C77.5185 25.1269 78.2877 25.8109 79.2277 25.8109ZM66.8775 30.4685L66.279 3.71652L75.4233 5.21178H75.5086L74.6962 0.554182H54.3548L53.5002 5.21178H53.5855L62.7298 3.71652L62.1313 30.4685H66.8775ZM11.3245 11.4534L14.9147 7.82112L12.7776 5.68403C11.2825 4.18877 13.9315 3.37628 15.5121 3.8895L23.5036 6.49652L26.4098 3.20559L21.8377 1.62499C20 0.984325 18.0769 0.427868 17.1802 0.427868C15.9832 0.427868 14.274 1.3257 12.7355 2.82096L7.69346 7.82112L11.3257 11.4534H11.3245ZM16.9652 20.9825C18.3329 20.9825 19.8714 20.2133 22.0926 18.0762L22.0073 17.2637C21.7934 17.4777 21.3234 17.7338 20.8535 17.7338C20.3402 17.7338 19.6564 17.6484 17.5205 17.0498C14.7428 16.2806 11.2392 15.0846 9.05892 15.0846C7.26445 15.0846 3.75967 17.307 0.555302 20.4261L1.0685 21.0247L1.88098 20.2987C3.07806 19.2301 4.23077 18.5462 5.38462 18.5462C6.0685 18.5462 7.137 18.7169 9.10215 19.2723C11.1538 19.8708 14.6142 20.9814 16.9652 20.9814V20.9825ZM29.2296 0.513214L28.7165 0L24.7849 3.88836L0 30.1714L0.598543 30.77L1.83773 29.4875C2.30769 29.0176 2.77765 28.7183 3.46154 28.7183C5.08535 28.7183 9.18754 30.6835 11.0252 30.6835C11.9652 30.6835 12.9483 29.9996 14.1875 28.3758L16.1959 25.7266L15.6828 25.2988L14.7428 26.324C14.2728 26.8373 13.845 27.0933 13.3329 27.0933C12.0084 27.0933 8.84615 25.4695 7.43628 25.4695C6.36777 25.4695 4.91465 25.9827 2.43628 27.9058L3.88939 27.4358L29.2296 0.513214Z" fill="#D4FF28"/>
</g>
<defs>
<clipPath id="clip0_4_1671">
<rect width="120" height="30.77" fill="white"/>
</clipPath>
</defs>
</svg>
