<svg width="158" height="22" viewBox="0 0 158 22" fill="none" xmlns="http://www.w3.org/2000/svg">
<path d="M50.4615 15.8022V5.09961H52.1516L56.6008 12.1544V5.09961H58.7392V15.8022H57.0492L52.6344 8.74745V15.8022H50.4615Z" fill="#F2EEE1"/>
<path d="M64.979 15.8713C64.7375 15.8713 64.4961 15.8369 64.1857 15.8025C63.8753 15.7681 63.5994 15.6648 63.3234 15.5272C63.0475 15.3895 62.8406 15.1486 62.6336 14.8389C62.4612 14.5292 62.3922 14.0818 62.3922 13.5312V7.54323C62.3922 7.06144 62.4612 6.68289 62.5991 6.37317C62.7371 6.06344 62.9441 5.78814 63.1855 5.61607C63.4269 5.444 63.7028 5.30635 63.9788 5.23752C64.2547 5.16869 64.5306 5.13428 64.841 5.13428C65.5653 5.13428 66.1861 5.13428 66.738 5.16869C67.2898 5.2031 67.7727 5.2031 68.221 5.23752C68.6694 5.27193 69.0488 5.27193 69.4282 5.34076V7.13026H65.4618C65.1514 7.13026 64.9445 7.19909 64.772 7.33675C64.5996 7.4744 64.5306 7.7153 64.5306 7.9906V9.53922L68.7384 9.64246V11.3287L64.4961 11.432V12.9117C64.4961 13.1526 64.5306 13.3591 64.5996 13.4968C64.6686 13.6344 64.8065 13.7377 64.9445 13.7721C65.0824 13.8065 65.2204 13.8409 65.3928 13.8409H69.3937V15.6304C68.9798 15.6648 68.497 15.7337 67.9796 15.7337C67.4622 15.7681 66.9449 15.8025 66.4275 15.8025C65.9447 15.8713 65.4273 15.8713 64.979 15.8713Z" fill="#F2EEE1"/>
<path d="M75.2199 15.8022V7.02677H72.3228V5.09961H80.29V7.02677H77.3583V15.8022H75.2199Z" fill="#F2EEE1"/>
<path d="M83.2625 15.8022V5.09961H85.4008V9.53897H89.4017V5.09961H91.5401V15.8022H89.4017V11.5005H85.4008V15.8022H83.2625Z" fill="#F2EEE1"/>
<path d="M97.7463 15.8713C97.5049 15.8713 97.2634 15.8369 96.953 15.8025C96.6426 15.7681 96.3667 15.6648 96.0908 15.5272C95.8148 15.3895 95.6079 15.1486 95.401 14.8389C95.2285 14.5292 95.1595 14.0818 95.1595 13.5312V7.54323C95.1595 7.06144 95.2285 6.68289 95.3665 6.37317C95.5044 6.06344 95.7114 5.78814 95.9528 5.61607C96.1942 5.444 96.4702 5.30635 96.7461 5.23752C97.022 5.16869 97.2979 5.13428 97.6083 5.13428C98.3326 5.13428 98.9535 5.13428 99.5053 5.16869C100.057 5.2031 100.54 5.2031 100.988 5.23752C101.437 5.27193 101.816 5.27193 102.196 5.34076V7.13026H98.2292C97.9187 7.13026 97.7118 7.19909 97.5394 7.33675C97.3669 7.4744 97.2979 7.7153 97.2979 7.9906V9.53922L101.506 9.64246V11.3287L97.2634 11.432V12.9117C97.2634 13.1526 97.2979 13.3591 97.3669 13.4968C97.4359 13.6344 97.5738 13.7377 97.7118 13.7721C97.8498 13.8065 97.9877 13.8409 98.1602 13.8409H102.161V15.6304C101.747 15.6648 101.264 15.7337 100.747 15.7337C100.23 15.7681 99.7122 15.8025 99.1949 15.8025C98.712 15.8713 98.1947 15.8713 97.7463 15.8713Z" fill="#F2EEE1"/>
<path d="M106.123 15.8022V5.09961H110.504C110.917 5.09961 111.331 5.16844 111.676 5.27168C112.056 5.37492 112.366 5.54699 112.642 5.78788C112.918 6.02878 113.125 6.37291 113.297 6.82029C113.47 7.26767 113.539 7.81829 113.539 8.54097C113.539 9.02276 113.504 9.43573 113.401 9.81428C113.297 10.1584 113.159 10.4337 113.021 10.6746C112.883 10.8811 112.676 11.0876 112.504 11.2252C112.297 11.3629 112.09 11.4661 111.883 11.5694L113.815 15.8022H111.642L109.952 11.8447C109.848 11.8447 109.71 11.8447 109.538 11.8447C109.4 11.8447 109.262 11.8447 109.089 11.8447C108.951 11.8447 108.779 11.8447 108.641 11.8447C108.503 11.8447 108.365 11.8447 108.227 11.8447V15.8022H106.123ZM108.227 10.124H110.124C110.331 10.124 110.504 10.0896 110.641 10.0552C110.779 10.0208 110.917 9.91752 111.055 9.81428C111.159 9.67662 111.262 9.53897 111.297 9.33249C111.366 9.126 111.4 8.88511 111.4 8.54097C111.4 8.23125 111.366 7.99035 111.297 7.81829C111.228 7.6118 111.159 7.47415 111.055 7.37091C110.952 7.26767 110.814 7.16443 110.641 7.13001C110.504 7.0956 110.331 7.06119 110.124 7.06119H108.227V10.124Z" fill="#F2EEE1"/>
<path d="M116.886 15.8022L118.128 5.09961H120.162L122.611 13.2901L125.026 5.09961H127.06L128.302 15.8022H126.233L125.301 7.92153L125.646 7.95594L123.577 15.8022H121.577L119.473 7.95594H119.818L118.955 15.8022H116.886Z" fill="#F2EEE1"/>
<path d="M131.993 15.8022V5.09961H134.131V15.8022H131.993Z" fill="#F2EEE1"/>
<path d="M137.79 15.8022V5.09961H139.48L143.929 12.1544V5.09961H146.068V15.8022H144.378L139.963 8.74745V15.8022H137.79Z" fill="#F2EEE1"/>
<path d="M149.687 15.8022V5.09961H154.171C154.895 5.09961 155.481 5.23726 155.964 5.47816C156.447 5.71905 156.827 6.0976 157.103 6.5794C157.378 7.06119 157.585 7.6118 157.689 8.26566C157.792 8.91952 157.861 9.64221 157.861 10.4337C157.861 11.6382 157.723 12.6362 157.447 13.4277C157.171 14.2192 156.758 14.8043 156.24 15.2172C155.688 15.5958 154.999 15.8022 154.171 15.8022H149.687ZM151.826 13.8751H153.964C154.412 13.8751 154.757 13.7374 154.999 13.4965C155.24 13.2212 155.447 12.8427 155.55 12.3265C155.688 11.8103 155.723 11.1908 155.723 10.4337C155.723 9.74545 155.688 9.16042 155.619 8.71304C155.55 8.26566 155.413 7.92153 155.275 7.64622C155.137 7.40532 154.93 7.23325 154.723 7.13001C154.516 7.02677 154.24 6.99236 153.964 6.99236H151.826V13.8751Z" fill="#F2EEE1"/>
<path d="M12.9686 0.247489L11.4511 5.89132C11.1751 5.8225 10.8992 5.8225 10.6233 5.8225C10.2094 5.8225 9.79552 5.89132 9.41613 5.99456C8.72633 6.16663 8.10551 6.51077 7.58816 6.95815L3.44934 2.82851C4.00118 2.31231 4.58752 1.89934 5.20834 1.48638L5.51875 1.31431C6.27753 0.901348 7.0708 0.591625 7.89857 0.35073C8.76082 0.109835 9.69205 0.00659371 10.6233 0.00659371C11.4166 -0.0278199 12.2098 0.075421 12.9686 0.247489Z" fill="#F2EEE1"/>
<path d="M41.978 8.12842C42.1505 8.88552 42.2539 9.67703 42.2539 10.4685C42.2539 11.3977 42.116 12.3269 41.909 13.1872C41.7021 14.0131 41.3572 14.8047 40.9433 15.5618L40.7709 15.9059C40.3915 16.5253 39.9431 17.1104 39.4602 17.661L35.3214 13.5314C35.7698 13.0152 36.1147 12.3957 36.2871 11.7074C36.3906 11.3289 36.4596 10.9159 36.4596 10.503C36.4596 10.2276 36.4251 9.95234 36.3906 9.67703L41.978 8.12842Z" fill="#F2EEE1"/>
<path d="M30.145 14.9076L28.6275 20.5514C27.9377 20.3449 27.2479 20.0352 26.627 19.6911L26.3166 19.519C25.5578 19.0716 24.9025 18.521 24.2817 17.936L23.9713 17.6262C23.7299 17.3854 23.5229 17.11 23.2815 16.8347L27.3858 12.7739L28.2826 13.7031C28.3171 13.7375 28.386 13.8063 28.4205 13.8407C28.8689 14.2881 29.4552 14.6667 30.145 14.9076Z" fill="#F2EEE1"/>
<path d="M19.0387 4.20518L14.9343 8.26599L14.0376 7.33682C14.0031 7.30241 13.9341 7.23358 13.8996 7.19917C13.4168 6.71738 12.7959 6.33883 12.1406 6.09793L13.6582 0.454102C14.348 0.660583 15.0378 0.970305 15.6586 1.31444L15.969 1.48651C16.7278 1.93389 17.4176 2.4845 18.004 3.06953L18.3144 3.37926C18.5903 3.62015 18.8317 3.89546 19.0387 4.20518Z" fill="#F2EEE1"/>
<path d="M34.729 14.0815L38.8679 18.2112C38.316 18.7274 37.7297 19.1403 37.1089 19.5533L36.7985 19.7254C36.0397 20.1383 35.2464 20.4481 34.4186 20.689C33.5564 20.9299 32.6251 21.0331 31.6939 21.0331C30.8661 21.0331 30.0729 20.9299 29.3141 20.7578L30.8317 15.114C31.1076 15.1828 31.3835 15.1828 31.6594 15.1828C32.0733 15.1828 32.4872 15.114 32.8666 15.0107C33.5909 14.8386 34.2117 14.5289 34.729 14.0815Z" fill="#F2EEE1"/>
<path d="M13.1783 14.426L17.3171 18.6245C16.9032 18.9686 16.4893 19.2439 16.041 19.5193L15.6961 19.6913C14.9718 20.1043 14.1785 20.414 13.3162 20.6549C12.454 20.8958 11.5228 20.999 10.5915 20.999C9.66029 20.999 8.72904 20.8614 7.86679 20.6549C7.03903 20.4484 6.24576 20.1043 5.52146 19.6913L5.17656 19.4848C4.45227 19.0375 3.76246 18.5213 3.14164 17.9018C2.52082 17.2824 2.00346 16.6285 1.55509 15.8714L1.38264 15.5617C1.03774 14.9422 0.761817 14.254 0.520386 13.5657L6.17677 12.0171C6.4182 12.7054 6.7976 13.2904 7.28046 13.7722C7.8668 14.3572 8.59109 14.7702 9.38437 14.9767C9.76376 15.0799 10.1776 15.1487 10.5915 15.1487C11.0054 15.1487 11.4193 15.0799 11.7987 14.9767C12.316 14.9078 12.7644 14.7013 13.1783 14.426Z" fill="#F2EEE1"/>
<path d="M2.86268 3.31055L7.0015 7.44018C6.55313 7.95639 6.20823 8.57583 6.03578 9.2641C5.93231 9.64265 5.86333 10.0556 5.86333 10.4686C5.86333 10.7439 5.89782 11.0192 5.93231 11.2945L0.275917 12.8431C0.103466 12.086 0 11.2945 0 10.503C0 9.57383 0.137961 8.64466 0.344902 7.78432C0.551843 6.95839 0.89674 6.16688 1.31062 5.40978L1.48307 5.06564C1.93145 4.4462 2.37982 3.86116 2.86268 3.31055Z" fill="#F2EEE1"/>
<path d="M41.799 7.40577L36.1426 8.95438C35.9011 8.26611 35.5218 7.68108 35.0389 7.19929C34.4526 6.61425 33.7283 6.20129 32.935 5.99481C32.5556 5.89157 32.1417 5.82274 31.7278 5.82274C31.314 5.82274 30.9001 5.89157 30.5207 5.99481C30.0378 6.13246 29.5894 6.33894 29.1756 6.61425L25.0367 2.41579C25.4506 2.07165 25.8645 1.79634 26.3129 1.52104L26.6578 1.31455C27.3821 0.901591 28.1754 0.591868 29.0376 0.350972C29.8999 0.110077 30.8311 0.00683594 31.7623 0.00683594C32.6936 0.00683594 33.6248 0.14449 34.487 0.350972C35.3148 0.557454 36.1081 0.901591 36.8669 1.31455L37.2118 1.52104C37.9706 1.96841 38.6259 2.48462 39.2467 3.10406C39.8675 3.72351 40.3849 4.37737 40.8332 5.13447L41.0057 5.44419C41.2816 6.02922 41.5575 6.71749 41.799 7.40577Z" fill="#F2EEE1"/>
</svg>
